<svg width="20.000000" height="20.000000" viewBox="0 0 20 20" fill="none" xmlns="http://www.w3.org/2000/svg" xmlns:xlink="http://www.w3.org/1999/xlink">
	<desc>
			Created with Pixso.
	</desc>
	<defs>
		<clipPath id="clip862_1131">
			<rect id="close (1)" rx="-0.500000" width="9.000000" height="9.000000" transform="translate(5.500000 5.500000)" fill="white" fill-opacity="0"/>
		</clipPath>
	</defs>
	<rect id="close" rx="-0.500000" width="19.000000" height="19.000000" transform="translate(0.500000 0.500000)" fill="#FFFFFF" fill-opacity="0"/>
	<path id="Vector" d="M20 10C20 15.52 15.52 20 10 20C4.47 20 0 15.52 0 10C0 4.47 4.47 0 10 0C15.52 0 20 4.47 20 10Z" fill="#000000" fill-opacity="1.000000" fill-rule="evenodd"/>
	<rect id="close (1)" rx="-0.500000" width="9.000000" height="9.000000" transform="translate(5.500000 5.500000)" fill="#FFFFFF" fill-opacity="0"/>
	<g clip-path="url(#clip862_1131)">
		<path id="Vector" d="M14.88 5.11C14.72 4.96 14.46 4.96 14.31 5.11L5.11 14.31C4.96 14.46 4.96 14.72 5.11 14.88C5.19 14.96 5.3 15 5.4 15C5.5 15 5.61 14.96 5.68 14.88L14.88 5.68C15.03 5.53 15.03 5.27 14.88 5.11Z" fill="#FFFFFF" fill-opacity="1.000000" fill-rule="nonzero"/>
		<path id="Vector" d="M14.88 14.31L5.68 5.11C5.53 4.96 5.27 4.96 5.11 5.11C4.96 5.27 4.96 5.53 5.11 5.68L14.31 14.88C14.38 14.96 14.49 15 14.59 15C14.69 15 14.8 14.96 14.88 14.88C15.03 14.72 15.03 14.46 14.88 14.31Z" fill="#FFFFFF" fill-opacity="1.000000" fill-rule="nonzero"/>
	</g>
</svg>
